<svg width="114" height="14" viewBox="0 0 114 14" fill="none" xmlns="http://www.w3.org/2000/svg">
<path d="M5.544 0.610008H8.262L9.594 4.69601L10.926 0.610008H13.662L11.484 6.55001L12.78 9.95201L15.984 0.592008H19.206L14.22 13.372H11.664L9.594 8.36801L7.542 13.372H4.968L0 0.592008H3.204L6.426 9.95201L7.686 6.55001L5.544 0.610008Z" fill="#4D5AE5"/>
<path d="M29.8384 10.78V13.372H20.8564V0.592008H29.6764V3.18401H23.8084V5.66801H28.8484V8.06201H23.8084V10.78H29.8384Z" fill="#4D5AE5"/>
<path d="M42.7378 10.096C42.7378 10.828 42.5398 11.44 42.1438 11.932C41.7598 12.412 41.2378 12.772 40.5778 13.012C39.9178 13.252 39.1918 13.372 38.3998 13.372H32.1718V0.592008H39.2818C39.8818 0.592008 40.3978 0.754009 40.8298 1.07801C41.2738 1.39001 41.6098 1.79801 41.8378 2.30201C42.0778 2.80601 42.1978 3.32801 42.1978 3.86801C42.1978 4.46801 42.0418 5.04401 41.7298 5.59601C41.4178 6.13601 40.9618 6.54401 40.3618 6.82001C41.0938 7.03601 41.6698 7.42001 42.0898 7.97201C42.5218 8.52401 42.7378 9.23201 42.7378 10.096ZM39.7318 9.50201C39.7318 9.22601 39.6778 8.98601 39.5698 8.78201C39.4618 8.56601 39.3178 8.39801 39.1378 8.27801C38.9698 8.14601 38.7658 8.08001 38.5258 8.08001H35.1238V10.87H38.3998C38.6518 10.87 38.8738 10.81 39.0658 10.69C39.2698 10.57 39.4318 10.408 39.5518 10.204C39.6718 10 39.7318 9.76601 39.7318 9.50201ZM35.1238 3.11201V5.75801H38.0218C38.2378 5.75801 38.4358 5.71001 38.6158 5.61401C38.8078 5.51801 38.9638 5.37401 39.0838 5.18201C39.2038 4.97801 39.2638 4.72601 39.2638 4.42601C39.2638 4.13801 39.2098 3.89801 39.1018 3.70601C39.0058 3.51401 38.8738 3.37001 38.7058 3.27401C38.5378 3.16601 38.3458 3.11201 38.1298 3.11201H35.1238Z" fill="#4D5AE5"/>
<path d="M53 4.33601C52.964 4.27601 52.838 4.18601 52.622 4.06601C52.406 3.93401 52.136 3.79601 51.812 3.65201C51.488 3.50801 51.134 3.38201 50.75 3.27401C50.366 3.16601 49.982 3.11201 49.598 3.11201C49.094 3.11201 48.704 3.20201 48.428 3.38201C48.152 3.55001 48.014 3.81401 48.014 4.17401C48.014 4.46201 48.116 4.69001 48.32 4.85801C48.536 5.02601 48.842 5.17601 49.238 5.30801C49.634 5.42801 50.12 5.57201 50.696 5.74001C51.512 5.95601 52.22 6.22001 52.82 6.53201C53.42 6.83201 53.876 7.22201 54.188 7.70201C54.512 8.18201 54.674 8.81801 54.674 9.61001C54.674 10.33 54.542 10.942 54.278 11.446C54.014 11.938 53.654 12.34 53.198 12.652C52.754 12.952 52.244 13.174 51.668 13.318C51.092 13.45 50.498 13.516 49.886 13.516C49.262 13.516 48.62 13.456 47.96 13.336C47.312 13.204 46.688 13.024 46.088 12.796C45.488 12.556 44.936 12.268 44.432 11.932L45.728 9.35801C45.776 9.41801 45.932 9.53201 46.196 9.70001C46.46 9.85601 46.784 10.024 47.168 10.204C47.564 10.372 48.002 10.522 48.482 10.654C48.962 10.786 49.448 10.852 49.94 10.852C50.468 10.852 50.858 10.768 51.11 10.6C51.374 10.432 51.506 10.198 51.506 9.89801C51.506 9.57401 51.368 9.32201 51.092 9.14201C50.828 8.96201 50.462 8.80001 49.994 8.65601C49.538 8.51201 49.01 8.35001 48.41 8.17001C47.63 7.93001 46.982 7.66001 46.466 7.36001C45.962 7.06001 45.584 6.69401 45.332 6.26201C45.092 5.83001 44.972 5.29001 44.972 4.64201C44.972 3.74201 45.182 2.98601 45.602 2.37401C46.034 1.75001 46.61 1.28201 47.33 0.970009C48.05 0.646009 48.836 0.484009 49.688 0.484009C50.288 0.484009 50.864 0.556009 51.416 0.700008C51.98 0.844008 52.502 1.02401 52.982 1.24001C53.474 1.45601 53.912 1.67201 54.296 1.88801L53 4.33601Z" fill="#2E2F42"/>
<path d="M66.6842 3.18401H62.7962V13.372H59.8442V3.18401H55.9382V0.592008H66.6842V3.18401Z" fill="#2E2F42"/>
<path d="M74.1559 13.48C73.1359 13.48 72.2659 13.312 71.5459 12.976C70.8259 12.628 70.2379 12.16 69.7819 11.572C69.3379 10.972 69.0079 10.294 68.7919 9.53801C68.5879 8.77001 68.4859 7.96601 68.4859 7.12601V0.592008H71.4379V7.12601C71.4379 7.60601 71.4859 8.07401 71.5819 8.53001C71.6779 8.97401 71.8339 9.37001 72.0499 9.71801C72.2659 10.066 72.5419 10.342 72.8779 10.546C73.2259 10.75 73.6519 10.852 74.1559 10.852C74.6719 10.852 75.1039 10.75 75.4519 10.546C75.7999 10.33 76.0759 10.048 76.2799 9.70001C76.4839 9.34001 76.6339 8.93801 76.7299 8.49401C76.8259 8.05001 76.8739 7.59401 76.8739 7.12601V0.592008H79.8259V7.12601C79.8259 8.01401 79.7119 8.84201 79.4839 9.61001C79.2679 10.378 78.9319 11.056 78.4759 11.644C78.0199 12.22 77.4319 12.67 76.7119 12.994C76.0039 13.318 75.1519 13.48 74.1559 13.48Z" fill="#2E2F42"/>
<path d="M82.6532 13.372V0.592008H87.4232C88.8272 0.592008 89.9972 0.880008 90.9332 1.45601C91.8812 2.02001 92.5952 2.78801 93.0752 3.76001C93.5552 4.72001 93.7952 5.78801 93.7952 6.96401C93.7952 8.26001 93.5312 9.38801 93.0032 10.348C92.4752 11.308 91.7312 12.052 90.7712 12.58C89.8232 13.108 88.7072 13.372 87.4232 13.372H82.6532ZM90.7892 6.96401C90.7892 6.22001 90.6572 5.56601 90.3932 5.00201C90.1292 4.42601 89.7452 3.98201 89.2412 3.67001C88.7372 3.34601 88.1312 3.18401 87.4232 3.18401H85.6052V10.78H87.4232C88.1432 10.78 88.7492 10.618 89.2412 10.294C89.7452 9.95801 90.1292 9.50201 90.3932 8.92601C90.6572 8.33801 90.7892 7.68401 90.7892 6.96401Z" fill="#2E2F42"/>
<path d="M96.0779 13.372V0.592008H99.0299V13.372H96.0779Z" fill="#2E2F42"/>
<path d="M107.612 13.48C106.652 13.48 105.782 13.3 105.002 12.94C104.234 12.568 103.568 12.076 103.004 11.464C102.452 10.84 102.026 10.144 101.726 9.37601C101.426 8.59601 101.276 7.79201 101.276 6.96401C101.276 6.11201 101.432 5.30201 101.744 4.53401C102.068 3.76601 102.512 3.08201 103.076 2.48201C103.652 1.87001 104.33 1.39001 105.11 1.04201C105.89 0.694008 106.742 0.520008 107.666 0.520008C108.614 0.520008 109.472 0.706008 110.24 1.07801C111.02 1.43801 111.686 1.93001 112.238 2.55401C112.802 3.17801 113.234 3.88001 113.534 4.66001C113.834 5.42801 113.984 6.21401 113.984 7.01801C113.984 7.87001 113.828 8.68001 113.516 9.44801C113.204 10.216 112.76 10.906 112.184 11.518C111.608 12.118 110.93 12.598 110.15 12.958C109.382 13.306 108.536 13.48 107.612 13.48ZM104.282 7.00001C104.282 7.49201 104.354 7.97201 104.498 8.44001C104.642 8.89601 104.852 9.30401 105.128 9.66401C105.416 10.024 105.77 10.312 106.19 10.528C106.61 10.744 107.09 10.852 107.63 10.852C108.194 10.852 108.686 10.744 109.106 10.528C109.526 10.3 109.874 10 110.15 9.62801C110.426 9.25601 110.63 8.84201 110.762 8.38601C110.906 7.91801 110.978 7.44401 110.978 6.96401C110.978 6.47201 110.906 5.99801 110.762 5.54201C110.618 5.08601 110.402 4.67801 110.114 4.31801C109.826 3.94601 109.472 3.65801 109.052 3.45401C108.632 3.25001 108.158 3.14801 107.63 3.14801C107.066 3.14801 106.574 3.25601 106.154 3.47201C105.746 3.68801 105.398 3.98201 105.11 4.35401C104.834 4.71401 104.624 5.12801 104.48 5.59601C104.348 6.05201 104.282 6.52001 104.282 7.00001Z" fill="#2E2F42"/>
</svg>
